External Loads File
version=1
nRows=31
nColumns=13
Range=5.000000e-03-10 seconds
endheader
time 	forceRightX 	forceRightY 	forceRightZ 	pointRightX 	pointRightY 	pointRightZ 	forceLeftX 	forceLeftY 	forceLeftZ 	pointLeftX 	pointLeftY 	pointLeftZ 		
5.005000 90.349917 -10.749961 -0.000000 0.133238 0.293645 -0.144684 -247.041020 779.055271 -0.000000 0.400281 0.350205 -0.382048
5.010000 85.843335 -16.617061 -0.000000 0.132215 0.304221 -0.144820 -208.042990 815.630183 -0.000000 0.401529 0.339135 -0.381957
5.015000 82.242884 -12.541424 -0.000000 0.131772 0.314992 -0.145007 -264.796218 823.064298 -0.000000 0.402359 0.328031 -0.381746
5.020000 75.874603 -19.746597 -0.000000 0.131820 0.325909 -0.145197 -212.549125 859.918909 -0.000000 0.402408 0.316971 -0.381994
5.025000 70.970296 -18.155663 -0.000000 0.132447 0.336948 -0.145476 -268.084256 864.624734 -0.000000 0.401932 0.305895 -0.381983
5.030000 62.213000 -27.658374 -0.000000 0.133634 0.348165 -0.145609 -195.693253 901.843907 -0.000000 0.401213 0.294911 -0.382624
5.035000 56.333260 -29.092899 -0.000000 0.135289 0.359395 -0.145825 -247.992841 905.092723 -0.000000 0.399330 0.284107 -0.382050
5.040000 46.475073 -37.682788 -0.000000 0.137521 0.370580 -0.145945 -193.593419 931.954090 -0.000000 0.397193 0.273480 -0.381996
5.045000 40.637003 -41.194770 -0.000000 0.140238 0.381670 -0.146221 -243.147423 931.467027 -0.000000 0.394571 0.263125 -0.381858
5.050000 29.518569 -49.428674 -0.000000 0.143495 0.392498 -0.146460 -172.189290 955.139056 -0.000000 0.391347 0.253166 -0.381682
5.055000 24.617750 -53.084503 -0.000000 0.147136 0.403210 -0.146818 -214.940562 951.022532 -0.000000 0.387462 0.243480 -0.381533
5.060000 14.222811 -58.246536 -0.000000 0.151328 0.413583 -0.147190 -147.027680 964.643145 -0.000000 0.383075 0.234004 -0.381454
5.065000 11.035028 -60.174970 -0.000000 0.156001 0.423499 -0.147653 -185.309634 954.861261 -0.000000 0.378121 0.224951 -0.381379
5.070000 1.089735 -61.653900 -0.000000 0.161024 0.433029 -0.148153 -101.773422 960.237054 -0.000000 0.372647 0.216365 -0.381310
5.075000 -0.493630 -61.154847 -0.000000 0.166665 0.442375 -0.148547 -136.251430 944.869554 -0.000000 0.366649 0.208140 -0.381241
5.080000 -8.610965 -58.956064 -0.000000 0.172775 0.451023 -0.148980 -60.048989 938.022732 -0.000000 0.360185 0.200435 -0.381126
5.085000 -9.615635 -56.113206 -0.000000 0.178930 0.459300 -0.149580 -93.769391 917.019759 -0.000000 0.353326 0.193190 -0.381023
5.090000 -18.628837 -49.875188 -0.000000 0.186450 0.466982 -0.149511 3.754994 900.547972 -0.000000 0.346042 0.186494 -0.380908
5.095000 -21.016669 -43.909684 -0.000000 0.193889 0.474255 -0.150339 -24.388223 876.208754 -0.000000 0.338405 0.180313 -0.380792
5.100000 -29.057104 -32.845324 -0.000000 0.201664 0.480742 -0.150770 50.410903 848.546177 -0.000000 0.330411 0.174663 -0.380694
5.105000 -33.810410 -22.210491 -0.000000 0.209746 0.486768 -0.151217 23.271842 820.849877 -0.000000 0.322056 0.169596 -0.380623
5.110000 -41.483046 -4.200432 -0.000000 0.218217 0.492064 -0.151637 92.033468 784.627131 -0.000000 0.313373 0.165189 -0.380502
5.115000 -48.823139 12.220552 -0.000000 0.226961 0.496678 -0.152034 65.800892 753.617237 -0.000000 0.304370 0.161340 -0.380473
5.120000 -54.101684 37.599631 -0.000000 0.235905 0.500974 -0.152556 129.565483 708.747734 -0.000000 0.295164 0.158209 -0.380401
5.125000 -63.098152 58.491327 -0.000000 0.244920 0.504277 -0.153068 103.403015 673.953886 -0.000000 0.285767 0.155662 -0.380295
5.130000 -73.564677 79.820519 -0.000000 0.253983 0.506572 -0.153266 80.983632 635.149744 -0.000000 0.276291 0.153904 -0.380199
5.135000 -72.026033 110.196788 -0.000000 0.263038 0.508406 -0.153351 134.920079 580.245265 -0.000000 0.266755 0.152453 -0.380112
5.140000 -66.094658 139.172873 -0.000000 0.271929 0.509445 -0.153540 175.681760 519.390874 -0.000000 0.257235 0.152173 -0.379959
5.145000 -75.239583 158.131019 -0.000000 0.280476 0.509670 -0.153632 150.463514 475.156054 -0.000000 0.247790 0.152552 -0.379755
5.150000 -63.574914 183.961732 -0.000000 0.288839 0.509151 -0.153500 179.893759 408.748288 -0.000000 0.238488 0.153784 -0.379548
5.155000 -74.915314 199.292487 -0.000000 0.296836 0.507744 -0.153213 152.356253 362.827329 -0.000000 0.229363 0.155818 -0.379224
